<svg width="16" height="16" viewBox="0 0 16 16" fill="none" xmlns="http://www.w3.org/2000/svg">
<g clip-path="url(#clip0_1_626)">
<path d="M16 8C16 9.58225 15.5308 11.129 14.6518 12.4446C13.7727 13.7602 12.5233 14.7855 11.0615 15.391C9.59966 15.9965 7.99113 16.155 6.43928 15.8463C4.88743 15.5376 3.46197 14.7757 2.34315 13.6569C1.22433 12.538 0.462403 11.1126 0.153721 9.56072C-0.15496 8.00887 0.0034659 6.40034 0.608967 4.93853C1.21447 3.47672 2.23985 2.22729 3.55544 1.34824C4.87104 0.469192 6.41775 6.66205e-08 8 6.66205e-08C9.05062 -0.000135523 10.091 0.206698 11.0616 0.608688C12.0323 1.01068 12.9143 1.59995 13.6572 2.34284C14.4001 3.08574 14.9893 3.96771 15.3913 4.93837C15.7933 5.90904 16.0001 6.94939 16 8ZM8 9.61239C7.70662 9.61239 7.41983 9.69938 7.1759 9.86238C6.93196 10.0254 6.74183 10.257 6.62956 10.5281C6.51729 10.7991 6.48792 11.0974 6.54515 11.3851C6.60239 11.6729 6.74366 11.9372 6.95111 12.1446C7.15856 12.3521 7.42287 12.4934 7.71061 12.5506C7.99836 12.6078 8.29661 12.5785 8.56766 12.4662C8.83871 12.3539 9.07038 12.1638 9.23337 11.9198C9.39636 11.6759 9.48336 11.3891 9.48336 11.0957C9.48336 10.7023 9.32708 10.325 9.04889 10.0469C8.77071 9.76867 8.39341 9.61239 8 9.61239ZM6.59097 4.27871L6.83045 8.66581C6.83573 8.76467 6.8787 8.85776 6.95051 8.92592C7.02232 8.99408 7.11751 9.03214 7.21652 9.03226H8.78245C8.88146 9.03214 8.97666 8.99408 9.04847 8.92592C9.12028 8.85776 9.16324 8.76467 9.16852 8.66581L9.408 4.27871C9.41154 4.22583 9.40417 4.1728 9.38637 4.12288C9.36857 4.07297 9.34071 4.02724 9.30452 3.98853C9.26833 3.94982 9.22457 3.91895 9.17597 3.89784C9.12736 3.87673 9.07493 3.86583 9.02194 3.86581H6.97807C6.92499 3.86569 6.87245 3.87649 6.82372 3.89754C6.77499 3.91858 6.73111 3.94943 6.6948 3.98815C6.6585 4.02688 6.63055 4.07265 6.61269 4.12264C6.59482 4.17262 6.58743 4.22575 6.59097 4.27871Z" fill="#F0B90B"/>
</g>
<defs>
<clipPath id="clip0_1_626">
<rect width="16" height="16" fill="white"/>
</clipPath>
</defs>
</svg>
